<svg xmlns="http://www.w3.org/2000/svg" id="Layer_1" viewBox="0 0 1920 404.82" width="1920" height="404.82"><defs><style>.cls-1{fill:#fedb00}.cls-2{fill:#0023ff}.cls-3{fill:#e3e8ff}.cls-4{fill:#fff}</style></defs><circle cx="1734.88" cy="62.45" r="62.45" class="cls-1"/><path d="M0 62.45h1920v342.37H0z" class="cls-2"/><path d="M0 260.19s11.05 5.48 31.16 0 53-5 61.24-3.48 30.17 3.92 40.22 2.46 19.19 3.4 42 3.46 48.44.94 57.58 0 11.88-2.56 43-3.25 35.65 4.05 57.58 3.68 28.34 0 28.34 0-35.65-3.09 15.54 0 34.73 8.56 51.18 3.08-31.06-6.44 20.16-6.44 27.42 4.47 64 4.47 16.54-6.55 43.87-2.07 167.27 7.73 180.07 6.4 37.44 2.64 65.33 2.64 19.45 2 31.9 0 23.87-6.95 38-7.27 215.72-3.18 237.65-4.67 31.08-6 58.5-3.49 109.69 11.59 127 7.79 46.62 4.8 76.78 0 19.2-1.17 70.38 0 156.3-.67 183.72 0 28.34 1.17 65.82 5.15 75.86 2.71 105.11 4.59 123.87 3.87 123.87 3.87v-34.33s-125.66-7-130.23 0-29.25 1.49-54.84 1.49-11-13.43-35.65-13.43-55.75 3-68.55 3-16.45-4.48-55.76-3-87.75 1.38-110.6-.31-27.42-11.14-58.49-11.14-34.74 8-58.5 8-96.89-1-137.11-1-38.39-1-68.55 0-26.51 2.48-59.41 2.48-73.69-4-122.31-4S850.28 210.49 842 213s-81.42 8.43-122.55 8.43-32-.5-78.6-.5-60.33-8-113.35-8.21-50.27 4.73-87.74 4.73S351.08 212 320.91 213s-28.33 5-74 5.45S137.19 200.48 95.14 208s-56.58 5.53-75.86 5S0 215.41 0 215.41zm1920-94.71s-11 2.59-31.16 0-53-2.36-61.24-1.65-30.17 1.86-40.22 1.16-19.19 1.61-42.05 1.64-48.44.44-57.58 0-11.88-1.21-43-1.53-35.65 1.91-57.58 1.73-28.34 0-28.34 0 35.65-1.46-15.54 0-34.73 4-51.18 1.46 31.07-3.06-20.11-3.06-27.42 2.12-64 2.12-16.54-3.1-43.87-1-167.27 3.66-180.07 3-37.44 1.25-65.33 1.25-19.45.94-31.9 0-23.87-3.28-38-3.43-215.71-1.46-237.64-2.17-31.08-2.83-58.5-1.65S643 168.84 625.64 167s-46.62 2.27-76.78 0-19.2-.55-70.38 0-156.3-.32-183.72 0-28.34.56-65.82 2.44-75.86 1.28-105.11 2.17S0 173.48 0 173.48v-16.24s125.66-3.29 130.23 0 29.25.71 54.84.71 11-6.35 35.65-6.35 55.75 1.4 68.55 1.4 16.45-2.12 55.76-1.41 87.75.65 110.6-.15 27.42-5.26 58.49-5.26 34.74 3.76 58.5 3.76 96.89-.47 137.11-.47 38.39-.47 68.55 0 26.51 1.18 59.41 1.18 73.69-1.89 122.31-1.89 109.72-6.79 118-5.63 81.42 4 122.55 4 32-.24 78.6-.24 60.33-3.77 113.35-3.88 50.27 2.23 87.74 2.23 88.66-2.56 118.83-2.1 28.33 2.34 74 2.57 109.68-8.47 151.73-4.94 56.58 2.62 75.86 2.37 19.34 1.16 19.34 1.16z" class="cls-3"/><path d="M1228.66 254.35s26 15.19 37.49 15.35 41.69-4.2 46.86-5 30.59-7.44 30.59-7.44l10.34-37.83-67.33-9.18-51.74 11.62z" class="cls-4"/><path d="M1310.94 261.18s1.26 22.31 5.47 27.88 1.27 20.74 1.27 20.74l10.63-1.9-2.74-50.72zM1426 142.59s13.73 13.53 14.34 16.29-3.22 13.19-1.07 14.72 15.49 14.42 15.79 17.64-.92 13.95-6 13.8-34.5 3.68-42.63 0-22.09 14.88-22.85 23.31-24.16 34.8-35 38.8-15.45-.76-15.45-.76l18.18-63 42.8-46.11z" class="cls-4"/><path d="M1192.22 152.72s7.08-11.49 18.13-12.38 48.65 6.64 69 6.19 51.74-4.42 58.38-3.53 23 8.84 27.41 9.72 38.48-18.13 52.63-15.47 8.48 16 4.6 22.93-13.46-.21-17.13 4.28-14.07 10.4-13.25 14.48 4.08 15.7 0 21.21-18.76 11.42-25.08 21.41-9.39 8.77-11.83 16.52-5.3 21.41-6.73 30.59-8.36 22.84-7.34 36.7-10.2 7.75-10.2 7.75 1-22.23 0-25.9-3.87-19.17 3.06-25.69 13.46-11.42 11-16.72-7.95-1.63-7.54-5.1 9.17-5.3 8.56-11.42-8-8.36-8.36-5.71-10 32-20.8 32-30.39-32.84-48.94-32.43-49.79 59.36-53.79 68.54-4.49 32.43-4.49 32.43h-12.64s2.33-34.06 1.12-38.58 9.65-20.51 9.65-38.6-24.76-28.42-15.42-93.22z" class="cls-1"/><path d="M1179.15 204.22s5.83 29.78 6.7 35.67-.22 21.61-2 27.28-7.85 18.11-8.29 30.55 0 16.37 0 16.37h7.44s-.38-15.93 1.14-18.12 6.77-13.31 9.39-16.36 14.54-24.45 14-31.41 12.8-62.43 12.8-62.43L1191 162.64l-11 7.21-4.6 11.63z" class="cls-1"/><path d="M1192.22 152.72s-13.06 5.09-15.86 12.66-4.21 24.69 0 38.72c0 0-3.44 4.74.64 6.14 0 0 3.76-2.9 2.15-6s.19-29.62 2.66-31.87 9.2-9.71 9.2-9.71zm230.93-10.13s5 10 4.64 15.82-5.22 15.09-5.61 16.44-9.67 2.51-10.25-1.16 7.74-14.32 6.19-18.77 5.03-12.33 5.03-12.33z" class="cls-1"/><path d="M1196 321.5c.84-1 5.38-3.53 5.88-2.52s3-.47 4.87-.24 3.7-2.47 5.37-1.79 6.38 1.91 6 2.22 3.36 1 2.18 1.66-17.13 6-26.19 7.05-15.79 1.51-18.81 1.51 20.7-7.89 20.7-7.89zm-30.47-7.05c.84-1 5.37-3.52 5.88-2.52s3-.46 4.87-.23 3.69-2.47 5.37-1.79 6.38 1.9 6 2.22 3.36 1 2.19 1.65-17.13 6.05-26.2 7.05-15.78 1.51-18.8 1.51 20.69-7.89 20.69-7.89zm141.11-6.27c.84-1 5.37-3.53 5.88-2.52s3-.47 4.87-.23 3.69-2.48 5.37-1.8 6.38 1.91 6 2.22 3.36 1 2.19 1.66-17.13 6-26.2 7.05-15.78 1.51-18.8 1.51 20.69-7.89 20.69-7.89z" class="cls-3"/><path d="M1324.57 310.91c.84-1 5.37-3.53 5.88-2.52s3-.47 4.87-.23 3.69-2.48 5.37-1.79 6.38 1.9 6 2.21 3.35 1 2.18 1.66-17.13 6-26.2 7.05-15.78 1.51-18.8 1.51 20.7-7.89 20.7-7.89z" class="cls-3"/></svg>